<svg width="26" height="26" viewBox="0 0 26 26" fill="none" xmlns="http://www.w3.org/2000/svg">
<path d="M15.1522 0.0518131C14.4725 0.208282 13.9885 0.486992 13.5288 0.980846C13.1768 1.35735 13.0203 1.6165 12.8443 2.11524C12.7172 2.48197 12.7123 2.55531 12.6927 3.58703L12.6732 4.67253L9.41665 4.6872C6.23838 4.70187 6.15036 4.70675 5.98412 4.79966C5.89121 4.85833 5.77386 4.97569 5.71519 5.06859C5.62228 5.23484 5.61739 5.32285 5.60272 8.50112L5.58805 11.7576L4.50255 11.7772C3.4415 11.7967 3.40727 11.7967 3.00143 11.9434C2.48313 12.1243 2.11641 12.3639 1.74479 12.7649C1.39274 13.1414 1.23627 13.4005 1.06024 13.8993C0.942892 14.2367 0.928223 14.3589 0.928223 14.8723C0.928223 15.3857 0.942892 15.5031 1.05535 15.816C1.35362 16.6473 1.8817 17.2487 2.62493 17.6056C2.8743 17.723 3.19213 17.8452 3.33393 17.8746C3.47573 17.9039 4.04293 17.9284 4.59057 17.9284H5.58805L5.60272 21.224C5.61739 24.4658 5.61739 24.5245 5.72008 24.6565C5.77386 24.7299 5.88143 24.8374 5.95478 24.8912C6.0868 24.9939 6.14058 24.9939 9.82738 25.0086C13.4995 25.0183 13.568 25.0183 13.7587 24.9205C13.8858 24.857 13.9885 24.7543 14.052 24.6272C14.1449 24.4511 14.1498 24.3436 14.1498 23.1016C14.1498 22.1188 14.1694 21.6983 14.2183 21.5125C14.5361 20.3194 16.0372 19.9184 16.9076 20.7937C17.02 20.9013 17.1618 21.1017 17.2303 21.2338C17.3525 21.4685 17.3525 21.4929 17.377 22.9989C17.4014 24.4414 17.4063 24.5294 17.5041 24.6565C17.5579 24.7299 17.6655 24.8374 17.7388 24.8912C17.8708 24.9939 17.9246 24.9939 21.6114 25.0086C25.2835 25.0183 25.352 25.0183 25.5427 24.9205C25.6698 24.857 25.7725 24.7543 25.8361 24.6272C25.9339 24.4365 25.9339 24.368 25.9241 20.6959C25.9094 17.0091 25.9094 16.9553 25.8067 16.8233C25.753 16.75 25.6454 16.6424 25.572 16.5886C25.4449 16.4908 25.3569 16.4859 23.9144 16.4615C22.4084 16.437 22.384 16.437 22.1493 16.3148C21.3963 15.9334 21.0491 15.063 21.3376 14.2905C21.455 13.9824 21.7337 13.645 22.0026 13.4739C22.34 13.2685 22.604 13.2343 24.0171 13.2343C25.2591 13.2343 25.3667 13.2294 25.5427 13.1365C25.6698 13.0729 25.7725 12.9703 25.8361 12.8431C25.9339 12.6524 25.9339 12.584 25.9241 8.91185C25.9094 5.22506 25.9094 5.17127 25.8067 5.03925C25.753 4.96591 25.6454 4.85833 25.572 4.80455C25.44 4.70187 25.3813 4.70187 22.1395 4.6872L18.8439 4.67253V3.67504C18.8439 3.1274 18.8194 2.5602 18.7901 2.4184C18.7608 2.2766 18.6385 1.95877 18.5212 1.7094C18.0371 0.697247 17.0445 0.0469246 15.9101 0.00291634C15.6216 -0.00686264 15.3331 0.00780678 15.1522 0.0518131ZM16.1888 1.51871C16.6533 1.64095 17.0396 1.96855 17.2401 2.40373C17.3477 2.63844 17.3525 2.71178 17.377 4.13956C17.4014 5.56733 17.4063 5.64068 17.509 5.80204C17.7339 6.16387 17.5237 6.14431 21.186 6.14431H24.467V8.95097V11.7576L23.357 11.7772C22.3009 11.7967 22.2226 11.8016 21.8852 11.9239C21.054 12.2221 20.4526 12.7502 20.0956 13.4934C19.8414 14.0215 19.7729 14.3149 19.7729 14.8674C19.7729 15.7085 20.0712 16.4272 20.6726 17.0287C21.0833 17.4394 21.5283 17.6985 22.0466 17.8306C22.3693 17.9137 22.5893 17.9284 23.4499 17.9284H24.467V20.7399V23.5514H21.6554H18.8439V22.5344C18.8439 21.6738 18.8292 21.4538 18.7461 21.1311C18.6141 20.6128 18.3549 20.1678 17.9442 19.7571C17.3428 19.1557 16.624 18.8574 15.783 18.8574C15.2304 18.8574 14.9371 18.9258 14.409 19.1801C13.6657 19.537 13.1377 20.1385 12.8394 20.9697C12.7172 21.3071 12.7123 21.3853 12.6927 22.4366L12.6732 23.5514H9.86649H7.05984V20.2705C7.05984 16.6082 7.0794 16.8184 6.71756 16.5935C6.5562 16.4908 6.48286 16.4859 5.05508 16.4615C3.62731 16.437 3.55396 16.4321 3.31926 16.3246C2.51247 15.9529 2.15552 15.0043 2.52714 14.1927C2.69827 13.8259 2.91831 13.601 3.28503 13.4201L3.60775 13.2587L5.10398 13.2343C6.73712 13.2098 6.75179 13.205 6.94738 12.9067C7.0305 12.7844 7.03539 12.5204 7.05984 9.46927L7.08429 6.16876L10.3946 6.14431C13.6462 6.11986 13.7049 6.11986 13.8418 6.01718C14.1352 5.80204 14.1498 5.71891 14.1498 4.23246C14.1498 2.73623 14.1743 2.57487 14.4579 2.14947C14.717 1.7583 15.2647 1.46003 15.739 1.45514C15.8465 1.45025 16.0519 1.47959 16.1888 1.51871Z" fill="#009688"/>
</svg>
