<svg width="26" height="25" viewBox="0 0 26 25" fill="none" xmlns="http://www.w3.org/2000/svg">
<path d="M16.5311 1.46484C16.1503 1.63086 15.8085 1.80664 15.7548 1.86523C15.6718 1.96777 15.6669 2.03613 15.701 2.68555L15.7303 3.39355L15.4667 3.65234L15.203 3.91602L14.4999 3.88184C13.8553 3.84766 13.787 3.85254 13.6844 3.93555C13.5673 4.03809 12.9911 5.36133 12.9911 5.53223C12.996 5.66895 13.0692 5.75684 13.6161 6.24512L14.0653 6.65527V7.03125V7.40723L13.6161 7.81738C13.0692 8.30566 12.996 8.39355 12.9911 8.53027C12.9911 8.70117 13.5673 10.0244 13.6844 10.127C13.787 10.21 13.8553 10.2148 14.5048 10.1807L15.2128 10.1514L15.4716 10.415L15.7352 10.6787L15.701 11.3818C15.6669 12.0264 15.6718 12.0947 15.7548 12.1973C15.8573 12.3145 17.1805 12.8906 17.3514 12.8906C17.4882 12.8857 17.576 12.8125 18.0643 12.2656L18.4745 11.8164H18.8505H19.2264L19.6366 12.2656C20.1249 12.8125 20.2128 12.8857 20.3495 12.8906C20.5253 12.8906 21.8436 12.3193 21.9462 12.1973C22.0292 12.0947 22.0341 12.0264 21.9999 11.3818L21.9657 10.6787L22.2294 10.415L22.4882 10.1514L23.1962 10.1807C23.8456 10.2148 23.9139 10.21 24.0165 10.127C24.1337 10.0244 24.7098 8.70117 24.7098 8.53027C24.705 8.39355 24.6317 8.30566 24.0897 7.81738L23.6356 7.40723V7.03125V6.65527L24.0897 6.24512C24.6317 5.75684 24.705 5.66895 24.7098 5.53223C24.7098 5.36133 24.1337 4.03809 24.0165 3.93555C23.9139 3.85254 23.8456 3.84766 23.1962 3.88184L22.4882 3.91113L22.2294 3.64746L21.9657 3.38379L21.9999 2.68066C22.0341 2.03613 22.0292 1.96777 21.9462 1.86523C21.8436 1.74316 20.5253 1.17188 20.3495 1.17188C20.2128 1.17676 20.1249 1.25 19.6366 1.79199L19.2264 2.24609H18.8505H18.4745L18.0643 1.79199C17.5663 1.23535 17.4882 1.17188 17.3368 1.17676C17.2684 1.17676 16.9071 1.30859 16.5311 1.46484ZM17.4686 2.30469C17.5956 2.44629 17.8055 2.66602 17.9276 2.79297L18.1522 3.02734H18.8505H19.5487L19.7733 2.79297C19.8954 2.66602 20.1053 2.44629 20.2372 2.2998C20.5057 2.00684 20.4764 2.00684 21.0233 2.25098L21.2333 2.34375L21.2089 3.02734L21.1796 3.71582L21.6727 4.20898L22.1659 4.70215L22.8544 4.68262L23.5428 4.66309L23.6893 5.00488C23.7675 5.19043 23.8309 5.36133 23.8309 5.38086C23.8309 5.40039 23.7137 5.52246 23.577 5.64941C23.4354 5.77637 23.2157 5.98633 23.0887 6.1084L22.8544 6.33301V7.03125V7.72949L23.0887 7.9541C23.2157 8.07617 23.4354 8.28613 23.577 8.41309C23.7137 8.54004 23.8309 8.66211 23.8309 8.68164C23.8309 8.70117 23.7675 8.87207 23.6893 9.05762L23.5428 9.39941L22.8544 9.37988L22.1659 9.36035L21.6727 9.85352L21.1796 10.3467L21.2089 11.0352L21.2333 11.7188L21.0233 11.8115C20.4764 12.0557 20.5057 12.0557 20.2372 11.7627C20.1053 11.6162 19.8954 11.3965 19.7733 11.2646L19.5487 11.0352H18.8505H18.1522L17.9276 11.2646C17.8055 11.3965 17.5956 11.6162 17.4686 11.7529C17.3417 11.8945 17.2196 12.0117 17.2001 12.0117C17.1805 12.0117 17.0096 11.9482 16.8241 11.8701L16.4823 11.7236L16.5018 11.0352L16.5214 10.3467L16.0282 9.85352L15.535 9.36035L14.8466 9.37988L14.1581 9.39941L14.0067 9.03809L13.8553 8.67676L14.3485 8.20801L14.8466 7.73926V7.03125V6.32324L14.3485 5.85449L13.8553 5.38574L14.0067 5.02441L14.1581 4.66309L14.8466 4.68262L15.535 4.70215L16.0282 4.20898L16.5214 3.71582L16.5018 3.02734L16.4823 2.33887L16.7997 2.19727C16.9755 2.12402 17.1415 2.06055 17.1757 2.05566C17.2098 2.05078 17.3417 2.16797 17.4686 2.30469Z" fill="#009688"/>
<path d="M18.2694 4.76571C17.0341 5.09774 16.2675 6.38192 16.58 7.59286C16.8241 8.52059 17.5907 9.20419 18.538 9.34091C20.1444 9.57528 21.5263 8.04208 21.121 6.47958C20.7938 5.21493 19.495 4.43368 18.2694 4.76571ZM19.5097 5.6202C19.8173 5.76669 20.1103 6.05966 20.2665 6.37216C20.4374 6.71883 20.4374 7.33407 20.2665 7.69051C20.1151 8.00301 19.8222 8.29598 19.5097 8.44735C19.1532 8.61825 18.538 8.61825 18.1913 8.44735C17.8788 8.29598 17.5858 8.00301 17.4345 7.69051C17.3368 7.49032 17.3124 7.37313 17.3173 7.03133C17.3173 6.67977 17.3368 6.57723 17.4442 6.36727C17.5175 6.23055 17.6298 6.05477 17.6981 5.97176C17.83 5.81551 18.245 5.57137 18.4794 5.51278C18.748 5.44442 19.246 5.49325 19.5097 5.6202Z" fill="#009688"/>
<path d="M2.46375 2.3877C2.23425 2.44629 1.81433 2.69043 1.6825 2.84668C1.61414 2.92969 1.50183 3.10547 1.42859 3.24219L1.29675 3.49121V11.7188V19.9463L1.42859 20.1953C1.6239 20.5664 1.77039 20.7178 2.11218 20.9033L2.4198 21.0693L6.07214 21.084C8.07898 21.0889 9.7196 21.1133 9.7196 21.1328C9.7196 21.1523 9.67566 21.626 9.62195 22.1924C9.56824 22.7588 9.52429 23.2666 9.52429 23.3252C9.52429 23.4375 9.51453 23.4375 8.91394 23.4375H8.30359V23.8281V24.2188H12.6005H16.8973V23.8281V23.4375H16.287C15.6864 23.4375 15.6766 23.4375 15.6766 23.3252C15.6766 23.2666 15.6327 22.7588 15.579 22.1924C15.5253 21.626 15.4813 21.1523 15.4813 21.1328C15.4813 21.1133 17.1219 21.0889 19.1337 21.084L22.7811 21.0693L23.0887 20.9033C23.4305 20.7178 23.577 20.5664 23.7723 20.1953L23.9042 19.9463L23.9188 15.4395L23.9335 10.9375H23.538H23.1473V14.0625V17.1875H12.6005H2.05359V11.7188V6.25H7.13171H12.2098V5.85938V5.46875H7.12683H2.04871L2.06335 4.5459C2.078 3.53516 2.09265 3.49121 2.41492 3.25195C2.54675 3.14941 2.57117 3.14941 8.74792 3.13477L14.9442 3.125V2.73438V2.34375L8.7821 2.34863C5.38855 2.35352 2.54675 2.36816 2.46375 2.3877ZM23.1376 18.8916C23.1229 19.9023 23.1083 19.9463 22.786 20.1855L22.6542 20.2881H12.6053H2.55652L2.37585 20.1465C2.08289 19.9268 2.05359 19.7998 2.05359 18.8232V17.9688H12.6053H23.1522L23.1376 18.8916ZM14.7001 21.1523C14.7001 21.1865 14.744 21.6748 14.7977 22.2412C14.8514 22.8076 14.8954 23.3057 14.8954 23.3496C14.8954 23.4326 14.7538 23.4375 12.6005 23.4375C10.4471 23.4375 10.3055 23.4326 10.3055 23.3496C10.3055 23.3057 10.3495 22.8076 10.4032 22.2412C10.4569 21.6748 10.5009 21.1865 10.5009 21.1523C10.5009 21.1084 10.955 21.0938 12.6005 21.0938C14.246 21.0938 14.7001 21.1084 14.7001 21.1523Z" fill="#009688"/>
<path d="M12.2098 19.1406V19.5312H12.6005H12.9911V19.1406V18.75H12.6005H12.2098V19.1406Z" fill="#009688"/>
<path d="M2.83484 4.29688V4.6875H3.22546H3.61609V4.29688V3.90625H3.22546H2.83484V4.29688Z" fill="#009688"/>
<path d="M4.39734 4.29688V4.6875H4.78796H5.17859V4.29688V3.90625H4.78796H4.39734V4.29688Z" fill="#009688"/>
<path d="M5.95984 4.29688V4.6875H6.35046H6.74109V4.29688V3.90625H6.35046H5.95984V4.29688Z" fill="#009688"/>
<path d="M3.34757 7.54403C3.2255 7.66122 3.2255 7.67099 3.2255 8.59384C3.2255 9.84872 3.14249 9.76571 4.39737 9.76571C5.65226 9.76571 5.56925 9.84872 5.56925 8.59384C5.56925 7.33895 5.65226 7.42196 4.39737 7.42196C3.47452 7.42196 3.46476 7.42196 3.34757 7.54403ZM4.788 8.59384V8.98446H4.39737H4.00675V8.59384V8.20321H4.39737H4.788V8.59384Z" fill="#009688"/>
<path d="M6.47257 7.54403C6.3505 7.66122 6.3505 7.67099 6.3505 8.59384C6.3505 9.84872 6.26749 9.76571 7.52237 9.76571C8.44523 9.76571 8.45499 9.76571 8.57218 9.64364C8.69425 9.52645 8.69425 9.51669 8.69425 8.59384C8.69425 7.33895 8.77726 7.42196 7.52237 7.42196C6.59952 7.42196 6.58976 7.42196 6.47257 7.54403ZM7.913 8.59384V8.98446H7.52237H7.13175V8.59384V8.20321H7.52237H7.913V8.59384Z" fill="#009688"/>
<path d="M9.59757 7.54403C9.4755 7.66122 9.4755 7.67099 9.4755 8.59384C9.4755 9.84872 9.39249 9.76571 10.6474 9.76571C11.9023 9.76571 11.8192 9.84872 11.8192 8.59384C11.8192 7.33895 11.9023 7.42196 10.6474 7.42196C9.72452 7.42196 9.71476 7.42196 9.59757 7.54403ZM11.038 8.59384V8.98446H10.6474H10.2567V8.59384V8.20321H10.6474H11.038V8.59384Z" fill="#009688"/>
<path d="M3.34757 10.669C3.2255 10.7862 3.2255 10.796 3.2255 11.7188C3.2255 12.9737 3.14249 12.8907 4.39737 12.8907C5.65226 12.8907 5.56925 12.9737 5.56925 11.7188C5.56925 10.464 5.65226 10.547 4.39737 10.547C3.47452 10.547 3.46476 10.547 3.34757 10.669ZM4.788 11.7188V12.1095H4.39737H4.00675V11.7188V11.3282H4.39737H4.788V11.7188Z" fill="#009688"/>
<path d="M6.47257 10.669C6.3505 10.7862 6.3505 10.796 6.3505 11.7188C6.3505 12.9737 6.26749 12.8907 7.52237 12.8907C8.44523 12.8907 8.45499 12.8907 8.57218 12.7686C8.69425 12.6515 8.69425 12.6417 8.69425 11.7188C8.69425 10.464 8.77726 10.547 7.52237 10.547C6.59952 10.547 6.58976 10.547 6.47257 10.669ZM7.913 11.7188V12.1095H7.52237H7.13175V11.7188V11.3282H7.52237H7.913V11.7188Z" fill="#009688"/>
<path d="M9.59757 10.669C9.4755 10.7862 9.4755 10.796 9.4755 11.7188C9.4755 12.9737 9.39249 12.8907 10.6474 12.8907C11.5702 12.8907 11.58 12.8907 11.6972 12.7686C11.8192 12.6515 11.8192 12.6417 11.8192 11.7188C11.8192 10.464 11.9023 10.547 10.6474 10.547C9.72452 10.547 9.71476 10.547 9.59757 10.669ZM11.038 11.7188V12.1095H10.6474H10.2567V11.7188V11.3282H10.6474H11.038V11.7188Z" fill="#009688"/>
<path d="M3.34757 13.794C3.2255 13.9112 3.2255 13.921 3.2255 14.8438C3.2255 16.0987 3.14249 16.0157 4.39737 16.0157C5.65226 16.0157 5.56925 16.0987 5.56925 14.8438C5.56925 13.589 5.65226 13.672 4.39737 13.672C3.47452 13.672 3.46476 13.672 3.34757 13.794ZM4.788 14.8438V15.2345H4.39737H4.00675V14.8438V14.4532H4.39737H4.788V14.8438Z" fill="#009688"/>
<path d="M6.47257 13.794C6.3505 13.9112 6.3505 13.921 6.3505 14.8438C6.3505 16.0987 6.26749 16.0157 7.52237 16.0157C8.44523 16.0157 8.45499 16.0157 8.57218 15.8936C8.69425 15.7765 8.69425 15.7667 8.69425 14.8438C8.69425 13.589 8.77726 13.672 7.52237 13.672C6.59952 13.672 6.58976 13.672 6.47257 13.794ZM7.913 14.8438V15.2345H7.52237H7.13175V14.8438V14.4532H7.52237H7.913V14.8438Z" fill="#009688"/>
<path d="M9.59757 13.794C9.4755 13.9112 9.4755 13.921 9.4755 14.8438C9.4755 16.0987 9.39249 16.0157 10.6474 16.0157C11.5702 16.0157 11.58 16.0157 11.6972 15.8936C11.8192 15.7765 11.8192 15.7667 11.8192 14.8438C11.8192 13.589 11.9023 13.672 10.6474 13.672C9.72452 13.672 9.71476 13.672 9.59757 13.794ZM11.038 14.8438V15.2345H10.6474H10.2567V14.8438V14.4532H10.6474H11.038V14.8438Z" fill="#009688"/>
<path d="M13.7723 14.0625V14.4531H14.163H14.5536V14.0625V13.6719H14.163H13.7723V14.0625Z" fill="#009688"/>
<path d="M15.3348 14.0625V14.4531H18.6552H21.9755V14.0625V13.6719H18.6552H15.3348V14.0625Z" fill="#009688"/>
<path d="M12.9911 15.625V16.0156H16.702H20.413V15.625V15.2344H16.702H12.9911V15.625Z" fill="#009688"/>
</svg>
