<svg width="26" height="25" viewBox="0 0 26 25" fill="none" xmlns="http://www.w3.org/2000/svg">
<path d="M3.69238 0.147954C2.21277 0.542517 1.04004 1.74265 0.678353 3.22226C0.546832 3.75383 0.546832 7.99539 0.678353 8.52695C1.0236 9.94081 2.04289 11.0368 3.4951 11.5519L3.8513 11.6835L7.48458 11.6999C10.948 11.7163 11.1233 11.7109 11.348 11.6122C11.6878 11.4643 11.9618 11.2012 12.1207 10.8779L12.2632 10.5929V7.0857C12.2632 3.14006 12.2741 3.2387 11.8522 2.36737C11.4247 1.48509 10.7671 0.83296 9.87936 0.421956C9.08475 0.0493128 8.99707 0.0383527 6.39405 0.0438327C4.30615 0.0438327 4.03214 0.0547928 3.69238 0.147954ZM8.92035 1.50701C9.79168 1.79197 10.5041 2.4989 10.7945 3.3757C10.9151 3.73191 10.9151 3.80863 10.937 6.95418L10.9535 10.171L10.8384 10.2861L10.7233 10.4011L7.5065 10.3847C4.60207 10.3628 4.26231 10.3518 3.9883 10.2641C3.07862 9.96821 2.34977 9.25032 2.06481 8.37351C1.95521 8.03923 1.94424 7.86935 1.92232 6.25821C1.88396 3.75383 1.96069 3.25514 2.50321 2.54274C2.97997 1.90705 3.66498 1.50701 4.42671 1.40837C4.62399 1.38097 5.63232 1.37001 6.67353 1.37549C8.42715 1.39193 8.59155 1.39741 8.92035 1.50701Z" fill="#009688"/>
<path d="M17.0089 0.147954C15.8033 0.471277 14.8114 1.30424 14.2908 2.42218C13.9018 3.24966 13.9072 3.17842 13.9072 7.0857V10.5929L14.0497 10.8779C14.2086 11.2012 14.4826 11.4643 14.8224 11.6122C15.0471 11.7109 15.2224 11.7163 18.6858 11.6999L22.3191 11.6835L22.6753 11.5519C23.8645 11.13 24.7029 10.3902 25.1961 9.32704C25.5688 8.53243 25.5797 8.43927 25.5797 5.87461C25.5797 3.27706 25.5688 3.20582 25.1687 2.36737C24.7413 1.48509 24.0837 0.83296 23.1959 0.421956C22.4013 0.0493128 22.3136 0.0383527 19.7106 0.0438327C17.6227 0.0438327 17.3487 0.0547928 17.0089 0.147954ZM22.2369 1.50701C23.1247 1.79745 23.8371 2.51534 24.1166 3.4031C24.2316 3.77575 24.2371 3.86891 24.2371 5.87461C24.2371 7.86935 24.2316 7.97347 24.1166 8.34063C23.8371 9.23388 23.1302 9.94629 22.2424 10.2422C21.8862 10.3628 21.8095 10.3628 18.6639 10.3847C15.4745 10.4011 15.4471 10.4011 15.3375 10.2915C15.2224 10.1764 15.2224 10.1381 15.2224 7.28298C15.2224 4.23607 15.2498 3.70999 15.4416 3.19486C15.6937 2.53178 16.3952 1.82485 17.0692 1.57277C17.5624 1.38645 17.9515 1.35905 19.9901 1.37549C21.7437 1.39193 21.9081 1.39741 22.2369 1.50701Z" fill="#009688"/>
<path d="M3.69238 13.4645C2.21277 13.8591 1.04004 15.0592 0.678353 16.5388C0.546832 17.0704 0.546832 21.3119 0.678353 21.8435C1.02908 23.2738 2.08125 24.3917 3.5225 24.874C3.90062 25 3.9335 25 6.42693 25C8.92035 25 8.95323 25 9.33136 24.874C10.5096 24.4794 11.3809 23.7177 11.8796 22.6436C12.2687 21.8161 12.2632 21.8873 12.2632 17.9801V14.4728L12.1207 14.1879C11.9618 13.87 11.6878 13.607 11.3645 13.459C11.1507 13.3658 10.9261 13.3549 7.60514 13.3604C4.32807 13.3604 4.04311 13.3713 3.69238 13.4645ZM10.8439 14.7852C10.9535 14.8948 10.9535 14.9222 10.937 18.1116C10.9151 21.2352 10.9096 21.3393 10.7945 21.6846C10.4986 22.5778 9.7862 23.2847 8.89843 23.5642C8.52579 23.6793 8.43263 23.6848 6.42693 23.6848C4.56371 23.6848 4.31163 23.6738 4.0157 23.5861C3.09506 23.3012 2.34977 22.5833 2.06481 21.69C1.95521 21.3558 1.94424 21.1859 1.92232 19.5747C1.88396 17.0704 1.96069 16.5717 2.50321 15.8593C2.97997 15.2236 3.67046 14.8181 4.42671 14.7249C4.62399 14.703 6.12004 14.6811 7.75858 14.6756C10.6959 14.6701 10.7288 14.6701 10.8439 14.7852Z" fill="#009688"/>
<path d="M14.806 13.459C14.4826 13.607 14.2086 13.87 14.0497 14.1879L13.9072 14.4728V17.9801C13.9072 21.8873 13.9018 21.8161 14.2908 22.6436C14.7895 23.7177 15.6608 24.4794 16.8391 24.874C17.2172 25 17.2501 25 19.7435 25C22.2369 25 22.2698 25 22.6479 24.874C23.8261 24.4794 24.6975 23.7177 25.1961 22.6436C25.5688 21.849 25.5797 21.7558 25.5797 19.1911C25.5797 16.5936 25.5688 16.5224 25.1687 15.6839C24.7413 14.8016 24.0837 14.1495 23.1959 13.7385C22.3684 13.3494 22.4397 13.3549 18.5324 13.3549C15.2444 13.3549 15.0142 13.3658 14.806 13.459ZM22.2369 14.8235C23.1302 15.1195 23.8371 15.8319 24.1166 16.7196C24.2316 17.0923 24.2371 17.1854 24.2371 19.1911C24.2371 21.1859 24.2316 21.29 24.1166 21.6572C23.8316 22.5669 23.1192 23.2793 22.215 23.5642C21.8423 23.6793 21.7492 23.6848 19.7435 23.6848C17.8803 23.6848 17.6282 23.6738 17.3323 23.5861C16.4116 23.3012 15.6718 22.5888 15.3759 21.69C15.2553 21.3338 15.2553 21.2571 15.2334 18.1116L15.217 14.8948L15.332 14.7797L15.4471 14.6646L18.6639 14.6811C21.7875 14.703 21.8917 14.7085 22.2369 14.8235Z" fill="#009688"/>
</svg>
