<svg width="26" height="26" viewBox="0 0 26 26" fill="none" xmlns="http://www.w3.org/2000/svg">
<g clip-path="url(#clip0_610_684)">
<path d="M2.8295 0.531709C2.53586 0.620313 2.28158 0.882946 2.21395 1.18362C2.02048 2.04374 2.19473 3.13317 2.19473 4.01565C2.19473 4.3381 2.06754 5.1715 2.63396 5.0641C2.9687 5.00062 2.97556 4.62428 2.97598 4.35745V2.16018C2.97598 1.90917 2.88072 1.42925 3.17416 1.31074C3.53634 1.16447 4.14969 1.28127 4.53848 1.28127H7.66349H18.5033H22.019C22.3734 1.28127 23.0692 1.14808 23.3789 1.33146C23.6046 1.46509 23.5326 1.84242 23.5326 2.06252V4.1133V12.8047V15.3438C23.5327 15.6394 23.55 16.0992 23.9721 16.0543C24.3858 16.0102 24.3139 15.5454 24.3139 15.2461V12.6094V3.96682V1.86721C24.3139 1.49485 24.356 1.10424 24.0926 0.802034C23.7383 0.395659 23.1351 0.500024 22.6537 0.500024H18.9916H7.80997H4.44083C3.94923 0.500024 3.30164 0.389239 2.8295 0.531709ZM4.63614 3.21726C3.67379 3.50764 3.95133 5.01568 3.95255 5.77346C3.95307 6.10149 3.96874 6.47786 4.1751 6.74929C4.64372 7.36565 5.76241 7.14065 6.44278 7.14065C6.71759 7.14065 7.00763 7.16702 7.27286 7.08083C8.23438 6.76843 7.95645 5.37769 7.95645 4.60159C7.95645 4.23395 7.97423 3.83643 7.7339 3.52948C7.27506 2.94341 6.07818 3.18557 5.41739 3.18557C5.16877 3.18557 4.87659 3.1447 4.63614 3.21726ZM9.71431 3.59978C9.28624 3.69386 9.21803 4.24768 9.66568 4.37832C9.96085 4.46447 10.3367 4.40627 10.642 4.40627H12.6928H19.2846H21.5795C21.837 4.40627 22.236 4.46564 22.4222 4.23933C22.6703 3.93762 22.3745 3.62412 22.0678 3.58524C21.2788 3.48523 20.4219 3.5762 19.6264 3.5762H12.9369C11.9286 3.5762 10.6985 3.38347 9.71431 3.59978Z" fill="#009688"/>
<path d="M4.8958 4.01702C4.65534 4.17748 4.78262 4.92947 4.78262 5.18754C4.78262 5.45497 4.67681 6.0139 4.83281 6.24056C4.93429 6.38803 5.16497 6.35917 5.31973 6.35941C5.75045 6.36014 6.64556 6.52928 7.01759 6.30184C7.30426 6.12655 7.1752 5.42684 7.1752 5.13871C7.1752 4.87326 7.28917 4.24847 7.09014 4.04513C6.97398 3.92646 6.73892 3.96684 6.58926 3.96683C6.18394 3.96681 5.23554 3.79031 4.8958 4.01702Z" fill="white"/>
<path d="M2.43973 5.81033C2.06545 5.94817 2.19464 6.5843 2.19464 6.89636V10.1678V20.91V23.7909C2.19464 24.1867 2.10232 24.708 2.31588 25.0597C2.62922 25.5758 3.18704 25.4999 3.70832 25.4999H7.22394H19.3333H22.5071C22.9488 25.4999 23.535 25.6039 23.9212 25.3469C24.4821 24.9735 24.3138 24.1246 24.3138 23.5468V18.6151C24.3138 18.1358 24.4184 17.5175 24.2983 17.0533C24.2445 16.8457 24.0326 16.7309 23.8276 16.7923C23.3167 16.9453 23.5325 18.2005 23.5325 18.6151V23.1073C23.5325 23.4458 23.6962 24.4071 23.4194 24.6404C23.173 24.8479 22.4736 24.7186 22.1653 24.7186H18.6497H7.71222H4.53839C4.1496 24.7186 3.53625 24.8354 3.17407 24.6892C2.8728 24.5675 2.97589 24.0487 2.97589 23.7909V21.1542V9.82605V6.60339C2.97587 6.28987 2.95188 5.62171 2.43973 5.81033ZM9.57296 5.95603C9.22301 6.10574 9.33952 6.58914 9.66559 6.67986C10.2782 6.85042 11.1288 6.70105 11.765 6.70105H16.2571H17.7708C17.9734 6.70105 18.2308 6.73665 18.3901 6.5822C18.5841 6.39407 18.5062 6.04485 18.2582 5.94924C17.8514 5.79251 17.1799 5.9198 16.7454 5.9198H11.7161C11.1256 5.9198 10.1162 5.72366 9.57296 5.95603ZM19.4363 5.9617C19.1107 6.11008 19.2157 6.5926 19.5289 6.67986C20.1413 6.85061 20.9923 6.70105 21.6282 6.70105C21.8497 6.70105 22.1634 6.75506 22.3534 6.61599C22.6112 6.42732 22.5143 6.01209 22.2139 5.93533C21.6207 5.78372 20.8251 5.9198 20.2122 5.9198C19.979 5.9198 19.6532 5.86282 19.4363 5.9617ZM4.68488 8.43606C3.68175 8.67835 3.95216 10.1933 3.95246 10.9491C3.95258 11.264 3.95089 11.6536 4.13326 11.9255C4.58253 12.5951 5.70109 12.3651 6.39386 12.3651C6.66344 12.3651 6.96086 12.3991 7.22394 12.3305C8.24044 12.0655 7.95636 10.6092 7.95636 9.82605C7.95636 9.45584 7.97028 9.06648 7.7299 8.75637C7.28009 8.17615 6.11344 8.41004 5.46613 8.41004C5.2136 8.41004 4.93201 8.37639 4.68488 8.43606ZM9.57296 8.88572C9.22301 9.03543 9.33952 9.51882 9.66559 9.60955C10.1952 9.75696 10.9225 9.63074 11.472 9.63074H19.3333H21.5306C21.7885 9.63074 22.1876 9.70076 22.394 9.50798C22.6395 9.27869 22.4694 8.89641 22.1652 8.85598C21.3955 8.75374 20.5496 8.84949 19.7728 8.84949H12.5462H10.4954C10.2238 8.84949 9.82653 8.77727 9.57296 8.88572Z" fill="#009688"/>
<path d="M4.89575 9.24165C4.6553 9.40209 4.78258 10.1541 4.78258 10.4122C4.78258 10.6843 4.67745 11.2381 4.83276 11.4708C4.9323 11.62 5.16587 11.584 5.31969 11.584C5.74342 11.5842 6.65318 11.7566 7.01754 11.5338C7.30426 11.3585 7.17515 10.6509 7.17515 10.3633C7.17515 10.093 7.28668 9.48652 7.08443 9.27651C6.96832 9.15595 6.73995 9.1915 6.58922 9.19145C6.18399 9.1913 5.23539 9.01499 4.89575 9.24165Z" fill="white"/>
<path d="M9.57304 11.1865C9.26313 11.327 9.29995 11.7989 9.61875 11.9008C10.1429 12.0684 10.9221 11.9259 11.4721 11.9259H19.3334H21.5307C21.7806 11.9259 22.2003 12.0065 22.394 11.8127C22.6285 11.5782 22.4662 11.211 22.1654 11.1558C21.4179 11.0186 20.5334 11.1446 19.7728 11.1446H12.5463H10.4955C10.2236 11.1446 9.82519 11.0722 9.57304 11.1865ZM4.73378 13.6607C3.69481 13.9009 3.95253 15.3356 3.95253 16.1251C3.95253 16.5028 3.94481 16.9281 4.1937 17.2397C4.65757 17.8204 5.78129 17.59 6.44277 17.59C6.69565 17.59 6.97641 17.623 7.22402 17.564C8.24209 17.3215 7.95644 15.8204 7.95644 15.0509C7.95644 14.6959 7.97221 14.3343 7.75581 14.03C7.31191 13.406 6.17876 13.6349 5.51503 13.6349C5.26142 13.6349 4.98241 13.6032 4.73378 13.6607ZM9.57304 14.1162C9.26313 14.2567 9.29995 14.7286 9.61875 14.8305C10.1429 14.9981 10.9221 14.8556 11.4721 14.8556H19.3334H21.5307C21.7858 14.8556 22.1932 14.9315 22.394 14.7367C22.6289 14.5091 22.4658 14.1286 22.1654 14.0816C21.4062 13.9627 20.5419 14.0743 19.7728 14.0743H12.5463H10.4955C10.2236 14.0743 9.82519 14.0019 9.57304 14.1162Z" fill="#009688"/>
<path d="M4.89579 14.4662C4.66023 14.6234 4.78261 15.3364 4.78261 15.5879C4.78261 15.8704 4.67191 16.4543 4.8328 16.6954C4.93233 16.8446 5.1659 16.8086 5.31972 16.8086C5.7268 16.8088 6.71748 16.9904 7.05244 16.7511C7.29506 16.5777 7.17519 15.8988 7.17519 15.6368C7.17519 15.3474 7.28491 14.7654 7.09013 14.5292C6.97172 14.3857 6.75478 14.4161 6.58925 14.4161C6.18403 14.4159 5.23541 14.2396 4.89579 14.4662Z" fill="white"/>
<path d="M9.61755 16.4056C9.29597 16.5333 9.25999 17.0249 9.61878 17.1294C10.1549 17.2856 10.9137 17.1506 11.4721 17.1506H19.3334H21.5307C21.7749 17.1506 22.1883 17.2284 22.3884 17.0581C22.6799 16.8102 22.4247 16.4213 22.1166 16.3786C21.3794 16.2763 20.5662 16.3693 19.8217 16.3693H12.644H10.5932C10.3016 16.3693 9.89202 16.2965 9.61755 16.4056ZM4.78264 18.8824C3.69532 19.0879 3.95256 20.541 3.95256 21.3498C3.95256 21.7292 3.9417 22.1523 4.18642 22.4683C4.6373 23.0504 5.79011 22.8146 6.4428 22.8146C6.69461 22.8146 6.97688 22.8494 7.22405 22.7956C8.23513 22.5753 7.95647 21.0746 7.95647 20.3244C7.95647 19.9766 7.98875 19.5997 7.77815 19.2992C7.2992 18.6157 5.52731 18.7416 4.78264 18.8824ZM9.61755 19.3352C9.29597 19.463 9.25999 19.9546 9.61878 20.0591C10.1549 20.2153 10.9137 20.0803 11.4721 20.0803H19.2846H21.5307C21.7806 20.0803 22.2003 20.1609 22.3941 19.9671C22.6531 19.708 22.4347 19.3399 22.1166 19.3043C21.3391 19.2173 20.5067 19.299 19.724 19.299H12.644H10.5932C10.3016 19.299 9.89202 19.2262 9.61755 19.3352Z" fill="#009688"/>
<path d="M4.93628 19.6767C4.74557 19.763 4.78264 20.0049 4.78256 20.1776C4.78238 20.593 4.60069 21.5721 4.83275 21.9199C4.9388 22.0788 5.20538 22.0331 5.3685 22.0331C5.81586 22.0331 6.60917 22.1877 7.01752 22.0036C7.20493 21.9191 7.17485 21.665 7.17514 21.4959C7.17582 21.095 7.35746 20.0736 7.09008 19.7593C6.96977 19.6179 6.75571 19.6408 6.5892 19.6405C6.13574 19.6397 5.3512 19.489 4.93628 19.6767Z" fill="white"/>
<path d="M9.66565 21.6216C9.21799 21.7522 9.2862 22.306 9.71428 22.4001C10.6691 22.61 11.861 22.4237 12.8392 22.4237H19.2845H21.4818C21.7544 22.4237 22.1678 22.4927 22.3884 22.2917C22.6979 22.0097 22.3869 21.6431 22.0677 21.6027C21.2945 21.5047 20.4549 21.5936 19.6752 21.5936H12.7904H10.6908C10.3711 21.5936 9.97463 21.5314 9.66565 21.6216Z" fill="#009688"/>
</g>
<defs>
<clipPath id="clip0_610_684">
<rect width="25" height="25" fill="white" transform="translate(0.729858 0.5)"/>
</clipPath>
</defs>
</svg>
