<svg width="26" height="20" viewBox="0 0 26 20" fill="none" xmlns="http://www.w3.org/2000/svg">
<path d="M1.24146 0.664781C0.782019 0.777197 0.376345 1.10956 0.18084 1.54455C0.024436 1.87691 0.0293236 2.46832 0.190615 2.7909C0.34702 3.1086 0.630502 3.38719 0.94331 3.53382L1.19747 3.65112H12.5612H23.9249L24.1791 3.53382C24.4919 3.38719 24.7754 3.1086 24.9318 2.7909C25.0931 2.46832 25.098 1.87691 24.9416 1.54455C24.7949 1.22197 24.5212 0.938488 24.2035 0.782084L23.9249 0.645231L12.659 0.635455C6.46144 0.635455 1.32455 0.645231 1.24146 0.664781Z" fill="#009688"/>
<path d="M1.17308 8.5337C0.762515 8.66078 0.391055 8.97359 0.190663 9.36949C0.0977976 9.55033 0.0782471 9.66763 0.0782471 10.0049C0.0782471 10.3568 0.0977976 10.4545 0.205325 10.6647C0.356842 10.958 0.625662 11.2219 0.928695 11.3783L1.14864 11.4956H12.5613H23.9739L24.2183 11.3636C24.7608 11.0753 25.0491 10.6061 25.0491 10.0049C25.0491 9.4037 24.7608 8.93449 24.2183 8.64612L23.9739 8.51415L12.6346 8.50438C6.39795 8.49949 1.2415 8.51415 1.17308 8.5337Z" fill="#009688"/>
<path d="M0.874906 16.5201C-0.259024 17.1067 -0.20526 18.6658 0.972659 19.2523L1.19749 19.3647H12.5612H23.925L24.2036 19.2279C24.5213 19.0715 24.795 18.788 24.9416 18.4654C25.098 18.1331 25.0931 17.5417 24.9318 17.2191C24.7754 16.9014 24.4919 16.6228 24.1791 16.4762L23.925 16.3589H12.5515H1.18283L0.874906 16.5201Z" fill="#009688"/>
</svg>
