<svg width="18" height="31" viewBox="0 0 18 31" fill="none" xmlns="http://www.w3.org/2000/svg">
<path d="M1.79614 0.0996094C1.14575 0.275391 0.577393 0.791016 0.307861 1.45898L0.173096 1.79297V15.0059V28.2188L0.307861 28.5527C0.583252 29.2324 1.14575 29.7422 1.81958 29.918C2.33521 30.0527 15.2961 30.0527 15.8118 29.918C16.4856 29.7422 17.0481 29.2324 17.3235 28.5527L17.4583 28.2188V15.0059V1.79297L17.3235 1.45898C17.0481 0.779297 16.4856 0.269531 15.8118 0.09375C15.3137 -0.0351562 2.27661 -0.0292969 1.79614 0.0996094ZM15.8469 1.04297C16.0286 1.14258 16.2278 1.30664 16.3391 1.45898L16.5208 1.7168L16.5383 2.61914L16.5559 3.52148H8.81567H1.07544L1.09302 2.61914L1.1106 1.7168L1.29224 1.45898C1.40356 1.30664 1.60278 1.14258 1.78442 1.04297L2.08911 0.884766H8.81567H15.5422L15.8469 1.04297ZM16.55 14.127V23.8535H10.304C4.01685 23.8535 3.8938 23.8594 3.76489 24.0527C3.7063 24.1348 3.7063 24.4512 3.76489 24.5332C3.8938 24.7266 4.01685 24.7324 10.3098 24.7324H16.5559L16.5383 26.5137L16.5208 28.2949L16.3391 28.5527C16.2278 28.7051 16.0286 28.8691 15.8469 28.9688L15.5422 29.127H8.81567H2.08911L1.78442 28.9629C1.60278 28.8691 1.40356 28.7051 1.29224 28.5527L1.1106 28.2949L1.09302 26.5137L1.07544 24.7324H1.75513C2.6106 24.7324 2.78052 24.6621 2.78052 24.293C2.78052 23.9238 2.6106 23.8535 1.76099 23.8535H1.0813V14.127V4.40039H8.81567H16.55V14.127Z" fill="#009688"/>
<path d="M6.85278 1.83375C6.68872 1.9275 6.64771 1.99781 6.64771 2.21461C6.64771 2.52516 6.96997 2.72437 7.24536 2.57789C7.427 2.48414 7.46802 2.41383 7.46802 2.20289C7.46802 1.99195 7.42114 1.92164 7.25122 1.82789C7.09302 1.74586 7.00513 1.74586 6.85278 1.83375Z" fill="#009688"/>
<path d="M8.6106 1.83398C8.44653 1.92773 8.40552 1.99805 8.40552 2.20312C8.40552 2.58984 8.552 2.64258 9.69458 2.64258C10.8372 2.64258 10.9836 2.58984 10.9836 2.20312C10.9836 1.81055 10.8372 1.76367 9.68286 1.76367C9.08521 1.76367 8.68677 1.79297 8.6106 1.83398Z" fill="#009688"/>
<path d="M8.22974 25.7695C8.0481 25.8691 7.84888 26.0332 7.73755 26.1855C7.56763 26.4258 7.55591 26.4785 7.55591 26.9297C7.55591 27.3809 7.56763 27.4336 7.73755 27.6738C7.97778 28.002 8.43481 28.248 8.81567 28.248C9.19653 28.248 9.65356 28.002 9.8938 27.6738C10.0637 27.4336 10.0754 27.3809 10.0754 26.9297C10.0754 26.4785 10.0637 26.4258 9.8938 26.1855C9.65356 25.8574 9.19653 25.6113 8.81567 25.6113C8.62231 25.6113 8.44067 25.6641 8.22974 25.7695ZM9.00903 26.5547C9.17896 26.6484 9.22583 26.7188 9.22583 26.9297C9.22583 27.1406 9.18481 27.2109 9.00317 27.3047C8.72778 27.4512 8.40552 27.252 8.40552 26.9414C8.40552 26.7246 8.44653 26.6543 8.6106 26.5605C8.76294 26.4727 8.85083 26.4727 9.00903 26.5547Z" fill="#009688"/>
</svg>
