<svg width="26" height="25" viewBox="0 0 26 25" fill="none" xmlns="http://www.w3.org/2000/svg">
<path d="M12.0787 0.0268764C11.2922 0.10504 11.043 0.163662 10.9063 0.295561L10.7841 0.417688L10.7597 1.71714L10.7353 3.01659L10.1344 3.212C9.80221 3.31947 9.23554 3.55396 8.87892 3.73471L8.22431 4.05713L7.30102 3.1436C6.27025 2.11284 6.26536 2.11284 5.86967 2.36198C5.06362 2.87492 3.34893 4.61404 3.01185 5.25888C2.86041 5.55687 2.91903 5.64969 3.88629 6.61206L4.78028 7.50605L4.45786 8.15089C4.27711 8.5075 4.04262 9.07418 3.93515 9.41126L3.73485 10.017L2.4354 10.0414L1.13595 10.0659L1.01382 10.188C0.877039 10.3297 0.823302 10.5642 0.74514 11.4093C0.681633 12.1225 0.681633 12.8455 0.74514 13.5588C0.823302 14.4039 0.877039 14.6384 1.01382 14.78L1.13595 14.9022L2.4354 14.9266L3.73485 14.951L3.93515 15.5568C4.04262 15.8939 4.27711 16.4605 4.45786 16.8172L4.78028 17.462L3.88629 18.356C2.91903 19.3183 2.86041 19.4112 3.01185 19.7092C3.35381 20.3687 5.31764 22.3276 5.97714 22.6745C6.27513 22.8259 6.36795 22.7673 7.33033 21.8L8.22431 20.906L8.86915 21.2284C9.22577 21.4092 9.79244 21.6437 10.1295 21.7512L10.7353 21.9514L10.7597 23.2509L10.7841 24.5503L10.9111 24.6774C11.0186 24.78 11.1212 24.8141 11.5218 24.8728C12.279 24.9802 13.4319 25.0096 14.2037 24.946C15.1319 24.863 15.3517 24.819 15.4983 24.6725L15.6204 24.5503L15.6449 23.2509L15.6693 21.9514L16.275 21.7512C16.6121 21.6437 17.1788 21.4092 17.5354 21.2284L18.1803 20.906L19.0742 21.8C20.0366 22.7673 20.1294 22.8259 20.4274 22.6745C21.0869 22.3276 23.0508 20.3687 23.3927 19.7092C23.5442 19.4112 23.4855 19.3183 22.5183 18.356L21.6243 17.462L21.9467 16.8172C22.1275 16.4605 22.3619 15.8939 22.4694 15.5568L22.6697 14.951L23.9692 14.9266L25.2686 14.9022L25.3956 14.7752C25.4982 14.6677 25.5324 14.5651 25.591 14.1645C25.6985 13.4073 25.7278 12.2544 25.6643 11.4826C25.5813 10.5544 25.5373 10.3346 25.3907 10.188L25.2686 10.0659L23.9692 10.0414L22.6697 10.017L22.4694 9.41126C22.3619 9.07418 22.1275 8.5075 21.9467 8.15089L21.6243 7.50605L22.5183 6.61206C23.4855 5.64969 23.5442 5.55687 23.3927 5.25888C23.2559 4.99996 22.5671 4.17926 22.0395 3.64678C21.5266 3.13383 20.6912 2.43037 20.4323 2.29847C20.1197 2.13726 20.0903 2.16169 19.1035 3.1436L18.1803 4.05713L17.5256 3.73471C17.169 3.55396 16.6023 3.31947 16.2702 3.212L15.6693 3.01659L15.6449 1.71714L15.6204 0.417688L15.4934 0.290676C15.3908 0.188087 15.2785 0.153891 14.9316 0.0952682C14.3943 0.0122223 12.6405 -0.0317459 12.0787 0.0268764ZM14.5604 1.03322L14.6678 1.06253V2.29359C14.6678 3.42206 14.6776 3.53442 14.7655 3.67609C14.8339 3.78844 14.917 3.84707 15.0684 3.88615C16.2506 4.19391 16.8271 4.41863 17.6331 4.89249C18.3366 5.30773 18.2682 5.33215 19.3527 4.25742L20.2613 3.35367L20.6766 3.71028C21.1504 4.12064 21.7269 4.70197 22.0835 5.13186L22.3326 5.42497L21.4289 6.33361C20.5789 7.18851 20.53 7.24714 20.53 7.423C20.53 7.55001 20.5837 7.70145 20.6961 7.88709C21.2139 8.74688 21.4973 9.44057 21.8002 10.6179C21.8392 10.7693 21.8979 10.8524 22.0102 10.9208C22.1519 11.0087 22.2642 11.0185 23.3976 11.0185H24.6287L24.6677 11.2481C24.6873 11.38 24.7068 11.932 24.7068 12.484C24.7068 13.036 24.6873 13.5881 24.6677 13.7151L24.6287 13.9496H23.3976C22.2642 13.9496 22.1519 13.9593 22.0102 14.0473C21.8979 14.1157 21.8392 14.1987 21.8002 14.3501C21.5022 15.5079 21.2042 16.2358 20.6961 17.0809C20.5837 17.2666 20.53 17.418 20.53 17.545C20.53 17.7209 20.5789 17.7795 21.4289 18.6344L22.3326 19.5431L22.0835 19.8362C21.7269 20.2661 21.1504 20.8474 20.6766 21.2578L20.2613 21.6144L19.3527 20.7106C18.4978 19.8606 18.4392 19.8118 18.2633 19.8118C18.1363 19.8118 17.9848 19.8655 17.7992 19.9778C16.9541 20.4859 16.2262 20.7839 15.0684 21.0819C14.917 21.121 14.8339 21.1796 14.7655 21.292C14.6776 21.4336 14.6678 21.546 14.6678 22.6793V23.9104L14.4382 23.9495C14.1353 23.9983 12.2692 23.9983 11.9712 23.9495L11.7367 23.9104V22.6793C11.7367 21.546 11.727 21.4336 11.639 21.292C11.5755 21.1796 11.4876 21.121 11.3459 21.0868C11.2384 21.0575 11.0577 21.0086 10.9453 20.9793C10.2614 20.8034 9.24531 20.3687 8.61024 19.9827C8.41972 19.8655 8.26828 19.8118 8.14126 19.8118C7.9654 19.8118 7.90677 19.8606 7.05187 20.7106L6.14323 21.6144L5.728 21.2578C5.25414 20.8474 4.67769 20.2661 4.32107 19.8362L4.07193 19.5431L4.97568 18.6344C5.8257 17.7795 5.87455 17.7209 5.87455 17.545C5.87455 17.418 5.82081 17.2666 5.70846 17.0809C5.2004 16.2358 4.90241 15.5079 4.60441 14.3501C4.56533 14.1987 4.50671 14.1157 4.39435 14.0473C4.25268 13.9593 4.14032 13.9496 3.00697 13.9496H1.77591L1.73683 13.7151C1.68797 13.4171 1.68797 11.551 1.73683 11.2481L1.77591 11.0185H3.00697C4.14032 11.0185 4.25268 11.0087 4.39435 10.9208C4.50671 10.8524 4.56533 10.7693 4.60441 10.6179C4.91218 9.44057 5.14666 8.84458 5.64006 8.00433C6.02111 7.35461 6.04065 7.40834 4.97568 6.33361L4.07193 5.42497L4.32107 5.13186C4.67769 4.70197 5.25414 4.12064 5.728 3.71028L6.14323 3.35367L7.05187 4.25742C8.12661 5.32238 8.07287 5.30284 8.7226 4.9218C9.43583 4.50656 10.2126 4.17437 10.8672 4.00828C11.0382 3.96431 11.258 3.90569 11.3606 3.88126C11.4876 3.84707 11.5755 3.78356 11.639 3.67609C11.727 3.53442 11.7367 3.42206 11.7367 2.2887V1.05764L11.8979 1.03322C11.981 1.01856 12.1422 0.994137 12.2497 0.984367C12.5379 0.955055 14.4285 0.994137 14.5604 1.03322Z" fill="#009688"/>
<path d="M12.3034 5.69863C11.0284 5.86473 9.64099 6.49491 8.72258 7.32539L8.42458 7.59896H7.80417H7.18375L7.01766 7.76505L6.85156 7.93115V12.4841V17.0371L7.01766 17.2032L7.18375 17.3693H7.80417H8.42458L8.72258 17.6428C9.53351 18.3756 10.7206 18.9569 11.893 19.1963C12.7577 19.3722 13.9595 19.3429 14.8339 19.123C15.8989 18.8592 16.9394 18.317 17.6819 17.6428L17.9799 17.3693H18.6004H19.2208L19.3869 17.2032L19.553 17.0371V16.0552C19.553 14.9804 19.5285 14.8485 19.2843 14.741C19.1231 14.6678 19.0058 14.6678 18.8446 14.741C18.6199 14.8436 18.5759 15.0048 18.5759 15.7327V16.3922H13.2023H7.82859V12.4841V8.57599H9.29414H10.7597V9.87544V11.1749L10.9258 11.341C11.0284 11.4436 11.1407 11.5071 11.2189 11.5071C11.2873 11.5071 11.766 11.297 12.2741 11.043L13.2023 10.5789L14.1304 11.043C14.6385 11.297 15.1172 11.5071 15.1856 11.5071C15.2638 11.5071 15.3762 11.4436 15.4787 11.341L15.6448 11.1749V9.87544V8.57599H17.1104H18.5759V9.724C18.5759 10.9746 18.5955 11.0918 18.8446 11.2042C19.0107 11.2824 19.1377 11.2775 19.3038 11.1944C19.5383 11.0674 19.553 10.9795 19.553 9.40158V7.93115L19.3869 7.76505L19.2208 7.59896H18.6004H17.9799L17.6819 7.32539C16.3043 6.07479 14.2379 5.44949 12.3034 5.69863ZM14.0816 6.69032C14.6825 6.78314 15.2638 6.96877 15.8109 7.24234C16.5926 7.63315 16.8368 7.59896 13.2023 7.59896C10.96 7.59896 9.97806 7.5843 10.0269 7.54522C10.2467 7.39378 11.0186 7.03716 11.3996 6.91015C12.2203 6.63658 13.1876 6.55842 14.0816 6.69032ZM14.6678 9.40646V10.2369L13.9839 9.89498C13.6077 9.70934 13.256 9.55302 13.2023 9.55302C13.1485 9.55302 12.7968 9.70934 12.4206 9.89498L11.7367 10.2369V9.40646V8.57599H13.2023H14.6678V9.40646ZM16.3776 17.423C16.1871 17.5549 15.3908 17.9311 15.0977 18.0336C14.4529 18.2535 14.0034 18.317 13.2023 18.317C12.3816 18.317 11.9077 18.2437 11.2726 18.019C10.96 17.9066 10.2077 17.5451 10.0269 17.423C9.97806 17.3839 10.9649 17.3693 13.2023 17.3693C15.4397 17.3693 16.4265 17.3839 16.3776 17.423Z" fill="#009688"/>
<path d="M14.917 12.5523C14.6874 12.6793 14.6092 12.9627 14.7362 13.2118C14.8583 13.4414 14.9756 13.4609 16.1382 13.4609C17.3058 13.4609 17.4279 13.4365 17.5403 13.1923C17.6526 12.9431 17.5745 12.6695 17.3498 12.5523C17.1592 12.4546 15.0928 12.4546 14.917 12.5523Z" fill="#009688"/>
<path d="M18.8251 12.5523C18.4001 12.7868 18.5809 13.4609 19.0645 13.4609C19.3136 13.4609 19.553 13.2216 19.553 12.9773C19.553 12.6109 19.1475 12.3715 18.8251 12.5523Z" fill="#009688"/>
<path d="M9.05478 14.5064C8.82517 14.6334 8.74701 14.9168 8.87402 15.1659C8.99615 15.3955 9.1134 15.415 10.2761 15.415C11.4436 15.415 11.5657 15.3906 11.6781 15.1464C11.7905 14.8972 11.7123 14.6236 11.4876 14.5064C11.2971 14.4087 9.23064 14.4087 9.05478 14.5064Z" fill="#009688"/>
<path d="M14.917 14.5064C14.6874 14.6334 14.6092 14.9168 14.7362 15.1659C14.8583 15.3955 14.9756 15.415 16.1382 15.415C17.3058 15.415 17.4279 15.3906 17.5403 15.1464C17.6526 14.8972 17.5745 14.6236 17.3498 14.5064C17.1592 14.4087 15.0928 14.4087 14.917 14.5064Z" fill="#009688"/>
</svg>
