<svg width="25" height="27" viewBox="0 0 25 27" fill="none" xmlns="http://www.w3.org/2000/svg">
<path d="M5.54303 0.888319C5.44057 0.995901 5.43033 1.0625 5.43033 1.52869V2.05123H2.82787H0.220287L0.112705 2.16906L0 2.28689V7.4918V12.7018L0.133197 12.8043C0.266393 12.9119 0.317623 12.9119 2.84836 12.9119H5.43033V14.3924V15.8781L5.56352 15.9805C5.68648 16.0779 5.76844 16.0881 6.32684 16.0881H6.95697L6.88525 16.3289C6.80328 16.6055 6.30123 20.9088 6.30123 21.3391C6.30123 21.7541 6.39344 22.1127 6.60861 22.5738C6.84939 23.0758 7.21311 23.4754 8.14037 24.2592L8.80635 24.8227V25.8064L8.81148 26.79L8.94467 26.8924C9.06762 26.9898 9.14959 27 9.79508 27C10.4816 27 10.5123 26.9949 10.6301 26.8719C10.7941 26.7131 10.7941 26.5184 10.6301 26.3596C10.5174 26.2418 10.4662 26.2316 10.041 26.2316H9.57992V25.4068C9.57992 24.9559 9.55943 24.5461 9.52869 24.4949C9.50307 24.4436 9.10348 24.0748 8.63729 23.6752C7.45902 22.6609 7.14652 22.21 7.09016 21.4826C7.0543 21.042 7.54611 16.708 7.65881 16.4621C7.86373 16.001 8.54508 16.0164 8.73975 16.4826C8.79611 16.6107 8.81148 17.0359 8.81148 18.3832V20.1199L8.9293 20.2275C9.08811 20.376 9.29816 20.3709 9.45184 20.2121L9.57992 20.0891V14.7459C9.57992 10.6066 9.59529 9.37705 9.64652 9.27971C9.79508 8.98258 10.2459 8.85451 10.5072 9.03381C10.7941 9.23873 10.7838 9.13627 10.8094 12.0051L10.835 14.6639L10.958 14.7613C11.2756 15.0174 11.5779 14.7561 11.5779 14.2234C11.5779 14.0697 11.5984 13.8852 11.6291 13.8135C11.7828 13.3986 12.6127 13.3576 12.8586 13.752C12.8945 13.8135 12.9406 14.085 12.9559 14.3617C12.9816 14.7818 13.002 14.8791 13.084 14.9406C13.3248 15.1148 13.6527 14.9713 13.709 14.6639C13.7859 14.2387 14.001 14.0389 14.3801 14.0389C14.8514 14.0389 15.1127 14.3463 15.1127 14.8893C15.1127 15.2582 15.1998 15.3709 15.4816 15.3709C15.7018 15.3709 15.8094 15.2633 15.876 14.9611C15.9477 14.6281 16.168 14.4488 16.4908 14.4488C16.9621 14.4488 16.9928 14.5051 17.3873 16.0369C17.71 17.2869 17.7766 17.7326 17.7818 18.5984C17.7818 19.7561 17.7613 19.8535 16.957 22.7172L16.4447 24.541V25.3863V26.2316H14.2725C12.1568 26.2316 12.1004 26.2316 11.9672 26.3391C11.7828 26.4826 11.7828 26.749 11.9672 26.8924C12.1004 27 12.1516 27 14.5031 27C15.8197 27 16.9365 26.9846 16.9826 26.9693C17.1773 26.8924 17.2131 26.6875 17.2131 25.6475V24.6434L17.7766 22.6352C18.0891 21.5287 18.3914 20.3555 18.4477 20.0328C18.5656 19.3617 18.5861 18.168 18.4939 17.4969C18.4375 17.0922 18.2787 16.3545 18.2121 16.1752C18.1762 16.0984 18.2223 16.0881 18.668 16.0881C19.1291 16.0881 19.1752 16.0779 19.2879 15.96L19.416 15.8371V10.0943V4.35656H21.8238H24.2316V8.25V12.1434H22.4436H20.6506L20.5482 12.2766C20.374 12.4969 20.415 12.7172 20.6506 12.835C20.7684 12.8965 21.1373 12.9119 22.7613 12.9119C24.6773 12.9119 24.7336 12.9068 24.8668 12.8043L25 12.7018V7.48668V2.27152L24.8822 2.16393L24.7643 2.05123H22.0902H19.416V1.53893C19.416 1.05738 19.4057 1.01127 19.2879 0.898565L19.165 0.770493H12.4078H5.65061L5.54303 0.888319ZM18.6475 2.56352V3.58812H12.4232H6.19877V2.56352V1.53893H12.4232H18.6475V2.56352ZM5.43033 3.20389V3.58812H3.09939H0.768443V3.20389V2.81967H3.09939H5.43033V3.20389ZM24.2316 3.20389V3.58812H21.8238H19.416V3.20389V2.81967H21.8238H24.2316V3.20389ZM5.40471 8.25V12.1178L3.08914 12.1332L0.768443 12.1434V8.25V4.35656L3.08914 4.3668L5.40471 4.38217V8.25ZM18.6475 9.83812V15.3197H18.3248H17.9969L17.8842 14.8945C17.71 14.2592 17.4744 13.957 16.9775 13.752C16.6906 13.6342 16.2141 13.6445 15.9119 13.7777L15.666 13.8852L15.415 13.6598C15.2766 13.5369 15.0564 13.3986 14.9232 13.3525C14.6055 13.2449 14.1445 13.25 13.8371 13.3678L13.5861 13.46L13.4375 13.25C13.1609 12.8555 12.459 12.5943 11.9775 12.7018C11.8494 12.7326 11.7111 12.7684 11.665 12.7889C11.583 12.8197 11.5779 12.707 11.5779 11.3801V9.94057H13.3811C15.5738 9.94057 15.4201 9.88422 15.4201 10.668C15.4201 11.1393 15.4098 11.1855 15.292 11.2982L15.1691 11.4262H14.0113C13.2941 11.4262 12.8125 11.4467 12.751 11.4826C12.5051 11.6107 12.5256 12.0205 12.7869 12.1383C12.8689 12.1742 13.3094 12.1947 14.0318 12.1947C15.3689 12.1947 15.5584 12.1537 15.8709 11.8156C16.1527 11.5082 16.1988 11.3135 16.1783 10.5758C16.1629 9.9918 16.1527 9.9457 16.0092 9.71004C15.8965 9.52562 15.7787 9.41803 15.5789 9.31557L15.3074 9.17213H13.4221H11.5369L11.3781 8.89549C11.1168 8.4293 10.7018 8.18852 10.1639 8.18852C9.99488 8.18852 9.76947 8.22439 9.67213 8.26537C9.39549 8.3832 9.06762 8.70594 8.93443 8.99283L8.81148 9.24898V12.2818V15.3197H7.50512H6.19877V9.83812V4.35656H12.4232H18.6475V9.83812Z" fill="#009688"/>
<path d="M9.93338 2.30228C9.84629 2.36888 9.81555 2.45085 9.81555 2.58917C9.81555 2.72749 9.84629 2.80945 9.93338 2.87605C10.0461 2.96827 10.1844 2.97339 12.3975 2.97339C14.6926 2.97339 14.7438 2.97339 14.877 2.86581C14.9744 2.78896 15.0102 2.71212 15.0102 2.58917C15.0102 2.46622 14.9744 2.38937 14.877 2.31253C14.7438 2.20495 14.6926 2.20495 12.3975 2.20495C10.1844 2.20495 10.0461 2.21007 9.93338 2.30228Z" fill="#009688"/>
<path d="M1.6496 6.52356C1.51128 6.67212 1.50616 6.86679 1.63423 7.0256C1.73157 7.14856 1.73669 7.14856 3.00718 7.16392C4.24181 7.17929 4.28792 7.17417 4.42112 7.07171C4.5953 6.93339 4.61067 6.66188 4.45698 6.50819C4.35964 6.41085 4.28792 6.40573 3.05841 6.40573C1.76743 6.40573 1.75718 6.40573 1.6496 6.52356Z" fill="#009688"/>
<path d="M1.66494 8.17311C1.59322 8.23971 1.53687 8.35753 1.53687 8.42926C1.53687 8.50098 1.59322 8.6188 1.66494 8.6854L1.78789 8.81348H3.0635C4.27252 8.81348 4.33912 8.80835 4.4467 8.71102C4.51842 8.6393 4.55941 8.54196 4.55941 8.42926C4.55941 8.31655 4.51842 8.21921 4.4467 8.14749C4.33912 8.05016 4.27252 8.04503 3.0635 8.04503H1.78789L1.66494 8.17311Z" fill="#009688"/>
<path d="M7.53068 5.22747C7.43335 5.3248 7.42822 5.39652 7.42822 6.37501V7.42521L7.56142 7.52767C7.69462 7.63013 7.75609 7.63525 9.33396 7.63525H10.9682L11.0911 7.50718C11.2192 7.38423 11.2192 7.37911 11.2192 6.39038C11.2192 5.46312 11.2141 5.38628 11.1116 5.2582L11.0092 5.12501H9.31859C7.69974 5.12501 7.62802 5.13013 7.53068 5.22747ZM10.4508 6.38013V6.86681H9.32371H8.19667V6.38013V5.89345H9.32371H10.4508V6.38013Z" fill="#009688"/>
<path d="M12.4744 6.12404C12.4027 6.19063 12.3463 6.30846 12.3463 6.38018C12.3463 6.4519 12.4027 6.56973 12.4744 6.63633L12.5973 6.7644H14.7234C16.1936 6.7644 16.8904 6.74904 16.9775 6.70805C17.2387 6.59022 17.2592 6.18039 17.0133 6.05231C16.9467 6.01645 16.1783 5.99596 14.7541 5.99596H12.5973L12.4744 6.12404Z" fill="#009688"/>
<path d="M20.2972 6.52356C20.1589 6.67212 20.1537 6.86679 20.2818 7.0256C20.3792 7.14856 20.3843 7.14856 21.6548 7.16392C22.8894 7.17929 22.9355 7.17417 23.0687 7.07171C23.2429 6.93339 23.2582 6.66188 23.1046 6.50819C23.0072 6.41085 22.9355 6.40573 21.706 6.40573C20.415 6.40573 20.4048 6.40573 20.2972 6.52356Z" fill="#009688"/>
<path d="M20.3177 8.15262C20.1435 8.29094 20.1384 8.51635 20.3126 8.6854L20.4355 8.81348H21.6855C22.874 8.81348 22.9457 8.80835 23.0738 8.70589C23.248 8.56757 23.2582 8.31143 23.0892 8.15774C22.9714 8.05016 22.9355 8.04503 21.7111 8.04503C20.5175 8.04503 20.4457 8.05016 20.3177 8.15262Z" fill="#009688"/>
</svg>
