<svg width="26" height="26" viewBox="0 0 26 26" fill="none" xmlns="http://www.w3.org/2000/svg">
<g clip-path="url(#clip0_615_938)">
<path fill-rule="evenodd" clip-rule="evenodd" d="M1.43926 2.53458C1.41864 2.54796 1.37632 2.55908 1.3452 2.55927C1.31407 2.55946 1.26907 2.57015 1.2452 2.58302C1.22132 2.59583 1.1652 2.62108 1.12051 2.63908C1.07582 2.65715 1.03926 2.68033 1.03926 2.69077C1.03926 2.70115 1.02251 2.70965 1.00195 2.70965C0.952261 2.70965 0.651136 3.00708 0.628636 3.0784C0.618886 3.10933 0.600386 3.13465 0.587573 3.13465C0.574761 3.13465 0.564261 3.15165 0.564261 3.17246C0.564261 3.19327 0.554323 3.22983 0.542198 3.25371C0.485948 3.36433 0.466948 3.43208 0.456636 3.55858C0.450573 3.63365 0.432948 3.69927 0.417448 3.7044C0.368886 3.72058 0.377948 21.1573 0.426636 21.2505C0.447136 21.2899 0.464011 21.3756 0.464136 21.4409C0.464198 21.5062 0.475511 21.5596 0.489261 21.5596C0.503011 21.5596 0.514261 21.5818 0.514261 21.6089C0.514261 21.7411 0.851698 22.1785 0.986886 22.2214C1.0157 22.2305 1.03926 22.2485 1.03926 22.2613C1.03926 22.2741 1.06176 22.2846 1.08926 22.2846C1.11676 22.2846 1.13926 22.2959 1.13926 22.3096C1.13926 22.3234 1.1667 22.3346 1.20026 22.3346C1.23382 22.3346 1.26826 22.3459 1.27676 22.3596C1.28526 22.3734 1.33026 22.3846 1.37676 22.3846C1.42326 22.3846 1.46826 22.3959 1.47676 22.4096C1.48682 22.426 2.17701 22.4346 3.46576 22.4346H5.43926V22.5596C5.43926 22.6284 5.45051 22.6846 5.46426 22.6846C5.47801 22.6846 5.48926 22.7016 5.48926 22.7225C5.48926 22.8272 5.69945 23.0768 5.84001 23.139C5.88082 23.1571 5.91426 23.1803 5.91426 23.1908C5.91426 23.2011 5.9417 23.2096 5.97526 23.2096C6.00882 23.2096 6.04326 23.2209 6.05176 23.2346C6.0732 23.2693 19.7053 23.2693 19.7268 23.2346C19.7353 23.2209 19.7697 23.2096 19.8033 23.2096C19.8368 23.2096 19.8643 23.2011 19.8643 23.1908C19.8643 23.1803 19.8973 23.1573 19.9376 23.1394C20.0271 23.0998 20.1893 22.9546 20.1893 22.9141C20.1893 22.8979 20.1977 22.8846 20.208 22.8845C20.2304 22.8842 20.2893 22.7631 20.2893 22.7171C20.2893 22.6993 20.3005 22.6846 20.3143 22.6846C20.328 22.6846 20.3393 22.6284 20.3393 22.5596V22.4346H22.3128C23.6015 22.4346 24.2917 22.426 24.3018 22.4096C24.3103 22.3959 24.3553 22.3846 24.4018 22.3846C24.4483 22.3846 24.4933 22.3734 24.5018 22.3596C24.5103 22.3459 24.5447 22.3346 24.5783 22.3346C24.6118 22.3346 24.6393 22.3234 24.6393 22.3096C24.6393 22.2959 24.6618 22.2846 24.6893 22.2846C24.7168 22.2846 24.7393 22.2741 24.7393 22.2613C24.7393 22.2485 24.7616 22.231 24.7888 22.2223C24.9286 22.1779 25.2643 21.7448 25.2643 21.6089C25.2643 21.5818 25.2739 21.5596 25.2858 21.5596C25.2977 21.5596 25.3135 21.4841 25.3209 21.3917C25.3283 21.2993 25.3467 21.2196 25.3618 21.2146C25.4016 21.2013 25.4009 3.71771 25.3611 3.7044C25.3456 3.69927 25.3279 3.63365 25.3219 3.55858C25.3116 3.43208 25.2926 3.36433 25.2363 3.25371C25.2242 3.22983 25.2143 3.19327 25.2143 3.17246C25.2143 3.15165 25.2038 3.13465 25.1909 3.13465C25.1781 3.13465 25.1596 3.10933 25.1499 3.0784C25.1274 3.00708 24.8263 2.70965 24.7766 2.70965C24.756 2.70965 24.7393 2.70115 24.7393 2.69077C24.7393 2.68033 24.7027 2.6569 24.658 2.63865C24.6133 2.6204 24.5543 2.59602 24.5268 2.58446C24.4993 2.5729 24.443 2.55458 24.4018 2.54383C24.2888 2.51433 1.48476 2.50521 1.43926 2.53458ZM24.2828 3.28227C24.4218 3.33308 24.4471 3.35258 24.5338 3.47602L24.5893 3.55483V12.4585C24.5893 20.2268 24.5846 21.3711 24.5526 21.4329C24.4184 21.6925 24.4615 21.6879 22.2643 21.6795L20.3518 21.6721L20.3448 21.5721C20.341 21.5171 20.3269 21.4468 20.3136 21.4159C20.3002 21.385 20.2755 21.3287 20.2587 21.2909C20.2146 21.1918 19.9949 20.9806 19.8681 20.9155L19.7595 20.8596H12.8893H6.01901L5.91039 20.9155C5.78364 20.9806 5.56389 21.1918 5.51982 21.2909C5.50301 21.3287 5.47832 21.385 5.46495 21.4159C5.45157 21.4468 5.43751 21.5171 5.4337 21.5721L5.42676 21.6721L3.51751 21.6786C1.31964 21.686 1.35889 21.6901 1.22589 21.4329C1.19395 21.3711 1.18926 20.2268 1.18926 12.4585V3.55483L1.24451 3.47602C1.31414 3.37658 1.37057 3.33308 1.49939 3.27977C1.66895 3.20952 24.0906 3.21202 24.2828 3.28227ZM2.83926 4.18465C2.83926 4.1984 2.81395 4.20977 2.78301 4.2099C2.74451 4.21002 2.6302 4.30702 2.42051 4.51746L2.11426 4.82477V4.95858C2.11426 5.24458 2.38532 5.41558 2.63401 5.28652C2.72576 5.2389 3.11901 4.85477 3.19826 4.73533C3.30776 4.57033 3.16864 4.20965 2.99551 4.20965C2.9662 4.20965 2.93526 4.1984 2.92676 4.18465C2.91826 4.1709 2.89507 4.15965 2.87526 4.15965C2.85545 4.15965 2.83926 4.1709 2.83926 4.18465ZM5.33926 4.18465C5.33926 4.1984 5.31226 4.20965 5.27926 4.20965C5.22132 4.20965 2.20351 7.18965 2.13857 7.3109C2.05439 7.46827 2.14514 7.69858 2.3327 7.8034C2.39757 7.83965 2.61426 7.84577 2.61426 7.81133C2.61426 7.79852 2.63639 7.78096 2.66345 7.7724C2.72914 7.75158 5.68926 4.78952 5.68926 4.74465C5.68926 4.7254 5.70051 4.70965 5.71426 4.70965C5.83551 4.70965 5.69401 4.2934 5.55364 4.23715C5.51132 4.22021 5.4572 4.19583 5.43332 4.18302C5.37695 4.15265 5.33926 4.15333 5.33926 4.18465ZM7.36426 5.85958C7.34364 5.87296 7.30251 5.88408 7.27289 5.88427C7.1507 5.88515 6.81426 6.1344 6.81426 6.22408C6.81426 6.24365 6.80301 6.25965 6.78926 6.25965C6.77551 6.25965 6.76426 6.28215 6.76426 6.30965C6.76426 6.33715 6.75414 6.35965 6.74176 6.35965C6.71445 6.35965 6.6922 6.51646 6.67357 6.84021L6.65964 7.08327L6.5807 7.09583C6.53726 7.10277 6.2777 7.11152 6.00382 7.11527C5.63276 7.1204 5.50326 7.13008 5.49551 7.1534C5.48976 7.17058 5.46845 7.18465 5.44807 7.18465C5.38645 7.18465 5.14895 7.43877 5.08589 7.57215L5.02676 7.69715V12.4739V17.2506L5.08895 17.3739C5.1232 17.4417 5.20164 17.5456 5.2632 17.6048C5.3642 17.7019 5.40539 17.7276 5.57676 17.8006C5.60426 17.8123 5.85739 17.8276 6.13926 17.8345L6.65176 17.8471L6.66757 18.0846C6.68726 18.3802 6.71432 18.5567 6.74257 18.5742C6.75451 18.5816 6.76426 18.6043 6.76426 18.6246C6.76426 18.7046 7.06926 19.0096 7.14926 19.0096C7.16964 19.0096 7.19232 19.0194 7.1997 19.0313C7.23495 19.0883 7.81226 19.0948 12.8893 19.0948C17.9663 19.0948 18.5436 19.0883 18.5788 19.0313C18.5862 19.0194 18.6089 19.0096 18.6293 19.0096C18.7093 19.0096 19.0143 18.7046 19.0143 18.6246C19.0143 18.6043 19.024 18.5816 19.0359 18.5742C19.0642 18.5567 19.0913 18.3802 19.1109 18.0846L19.1268 17.8471L19.6393 17.8345C19.9211 17.8276 20.1743 17.8123 20.2018 17.8006C20.3731 17.7276 20.4143 17.7019 20.5153 17.6048C20.5769 17.5456 20.6553 17.4417 20.6896 17.3739L20.7518 17.2506V12.4721V7.69365L20.6893 7.5704C20.6202 7.43383 20.3884 7.18465 20.3304 7.18465C20.3101 7.18465 20.2888 7.17058 20.283 7.1534C20.2753 7.13008 20.1458 7.1204 19.7747 7.11527C19.5008 7.11152 19.2413 7.10277 19.1978 7.09583L19.1189 7.08327L19.1049 6.84021C19.0863 6.51646 19.0641 6.35965 19.0368 6.35965C19.0244 6.35965 19.0143 6.33715 19.0143 6.30965C19.0143 6.28215 19.003 6.25965 18.9893 6.25965C18.9755 6.25965 18.9643 6.24365 18.9643 6.22408C18.9643 6.13277 18.6721 5.9199 18.4768 5.86896C18.3636 5.8394 7.40964 5.83021 7.36426 5.85958ZM18.3393 10.0691C18.3393 12.9461 18.3336 13.5333 18.3054 13.5566C18.2786 13.5788 17.9958 13.3096 16.9367 12.2534C15.5124 10.8331 15.5419 10.8596 15.3893 10.8596C15.2131 10.8596 15.3116 10.7701 13.5527 12.5284C12.8614 13.2193 12.279 13.7846 12.2583 13.7846C12.2377 13.7846 11.8509 13.4162 11.3988 12.9659C10.4472 12.0181 10.4486 12.019 10.1814 12.1745C10.1566 12.189 9.5472 12.7894 8.82738 13.5088C7.88439 14.4512 7.50751 14.8124 7.47895 14.8015C7.44295 14.7876 7.43926 14.409 7.43926 10.698V6.60965H12.8893H18.3393V10.0691ZM6.65807 12.4659L6.65176 17.0971L6.22314 17.104L5.79457 17.1108L5.76689 17.0315C5.72639 16.9153 5.72776 7.98727 5.76826 7.89833L5.79726 7.83465H6.23082H6.66439L6.65807 12.4659ZM20.0103 7.89833C20.0523 7.99052 20.052 16.9543 20.01 17.0465L19.9807 17.1108L19.5538 17.104L19.1268 17.0971L19.1203 12.4971C19.1168 9.96715 19.1193 7.88308 19.1258 7.8659C19.1347 7.84258 19.2451 7.83465 19.5594 7.83465H19.9813L20.0103 7.89833ZM9.67676 8.38465C9.66826 8.3984 9.64051 8.40965 9.61514 8.40965C9.56482 8.40965 9.3717 8.50327 9.3187 8.5534C9.30057 8.57058 9.2752 8.58465 9.26245 8.58465C9.23032 8.58465 9.07407 8.75115 8.99257 8.87215C8.90395 9.00377 8.83126 9.16471 8.8007 9.29715C8.76757 9.44077 8.7592 9.71458 8.78707 9.74246C8.80201 9.7574 8.81426 9.80015 8.81426 9.83752C8.81426 10.1402 9.3837 10.7096 9.68639 10.7096C9.72376 10.7096 9.76651 10.7219 9.78145 10.7368C9.80932 10.7647 10.0831 10.7563 10.2268 10.7232C10.2971 10.707 10.3335 10.6935 10.4893 10.6258C10.6368 10.5618 10.9393 10.3168 10.9393 10.2615C10.9393 10.2487 10.9533 10.2233 10.9705 10.2052C11.0206 10.1522 11.1143 9.95908 11.1143 9.90877C11.1143 9.8834 11.1255 9.85565 11.1393 9.84715C11.1533 9.83852 11.1643 9.7204 11.1643 9.57871C11.1643 9.24196 11.1161 9.09146 10.9289 8.8434C10.7778 8.64302 10.4609 8.40965 10.3399 8.40965C10.3137 8.40965 10.2853 8.3984 10.2768 8.38465C10.2679 8.37033 10.1395 8.35965 9.97676 8.35965C9.81401 8.35965 9.68557 8.37033 9.67676 8.38465ZM10.1643 9.12852C10.1643 9.13896 10.1974 9.16208 10.2378 9.18002C10.2783 9.1979 10.326 9.24565 10.3439 9.28608C10.3618 9.32652 10.3849 9.35965 10.3954 9.35965C10.427 9.35965 10.4164 9.70646 10.383 9.76577C10.2243 10.0476 9.87764 10.098 9.65176 9.87215C9.42776 9.64815 9.47439 9.30971 9.75232 9.1424C9.80626 9.1099 10.1643 9.0979 10.1643 9.12852ZM3.55176 10.8976C3.47464 10.9536 3.0942 11.3091 2.97939 11.4323C2.92295 11.4929 2.71645 11.7038 2.52051 11.9008C2.32457 12.098 2.16426 12.2706 2.16426 12.2845C2.16426 12.2983 2.15301 12.3096 2.13926 12.3096C2.08732 12.3096 2.11126 12.5852 2.17039 12.6683C2.26589 12.8025 3.45964 13.9829 3.55282 14.0352C3.64432 14.0866 3.83926 14.1032 3.83926 14.0596C3.83926 14.0459 3.85664 14.0346 3.87789 14.0346C4.00414 14.0346 4.1642 13.6589 4.06426 13.5971C4.05051 13.5886 4.03926 13.5667 4.03926 13.5484C4.03926 13.5301 3.80726 13.2841 3.52376 13.0017L3.00826 12.4883L3.05857 12.4177C3.0862 12.3789 3.31401 12.1422 3.56476 11.8916C4.04595 11.4109 4.08926 11.3553 4.08926 11.218C4.08926 10.9595 3.7472 10.7555 3.55176 10.8976ZM21.9033 10.8924C21.5477 11.1105 21.5956 11.2662 22.207 11.88C22.4579 12.1318 22.6873 12.3717 22.7167 12.4131L22.7703 12.4883L22.2598 12.9966C21.671 13.5831 21.617 13.6696 21.7168 13.8675C21.7983 14.0293 22.1893 14.1882 22.1893 14.0596C22.1893 14.0459 22.2058 14.0346 22.2261 14.0346C22.2658 14.0346 23.5154 12.7993 23.6083 12.6683C23.6673 12.5851 23.691 12.3096 23.6393 12.3096C23.6255 12.3096 23.6143 12.2983 23.6143 12.2844C23.6143 12.2705 23.4652 12.1093 23.283 11.926C23.1008 11.7428 22.8943 11.532 22.8241 11.4575C22.3088 10.9108 22.091 10.7771 21.9033 10.8924ZM16.8891 13.2327L18.3396 14.6808L18.3332 16.5015L18.3268 18.3221H12.8893H7.45176L7.44526 17.1259L7.43876 15.9296L8.90095 14.4696C9.7052 13.6666 10.3758 13.0096 10.3911 13.0096C10.4064 13.0096 11.1991 13.7912 12.1524 14.7465C13.9259 16.5234 13.9917 16.5844 14.1346 16.5846C14.2859 16.5847 14.4806 16.4263 14.4895 16.2958C14.5056 16.0609 14.5508 16.1191 13.6518 15.2164C13.1911 14.7539 12.8143 14.3606 12.8143 14.3426C12.8143 14.2834 15.3208 11.7891 15.3826 11.7868C15.4244 11.7852 15.8049 12.1503 16.8891 13.2327ZM19.6031 21.6953C19.6348 21.8646 19.6053 22.4843 19.5643 22.5102C19.5141 22.5418 6.26526 22.5424 6.2152 22.5108C6.17357 22.4845 6.1452 21.9238 6.17539 21.7228L6.19232 21.6096H12.8896H19.587L19.6031 21.6953Z" fill="#009688"/>
</g>
<defs>
<clipPath id="clip0_615_938">
<rect width="25" height="25" fill="white" transform="translate(0.38916 0.384766)"/>
</clipPath>
</defs>
</svg>
