<svg width="25" height="25" viewBox="0 0 25 25" fill="none" xmlns="http://www.w3.org/2000/svg">
<path d="M1.14179 0.0465164C0.692345 0.218662 0.335721 0.562954 0.125655 1.03382L0.0181798 1.27685L0.00352402 9.73223C-0.00624648 15.97 0.00352402 18.2585 0.042606 18.4661C0.0768028 18.618 0.150082 18.8357 0.21359 18.9521C0.365033 19.2205 0.726541 19.5648 1.00989 19.6964C1.23949 19.8078 1.24926 19.8078 5.59714 19.823L9.95967 19.8382V20.0053C9.95967 20.3344 9.81311 20.9571 9.66167 21.3115C9.54931 21.5596 9.42229 21.7368 9.222 21.9292C8.82629 22.314 8.64065 22.3697 7.63917 22.4102C6.96501 22.4406 6.7696 22.4659 6.58884 22.552C6.31527 22.6735 6.06612 22.9317 5.94888 23.2001C5.82675 23.4735 5.82675 23.9899 5.94888 24.2633C6.06124 24.5215 6.44717 24.876 6.68166 24.9468C6.92104 25.0177 18.079 25.0177 18.3183 24.9468C18.5528 24.876 18.9388 24.5215 19.0511 24.2633C19.1733 23.9899 19.1733 23.4735 19.0511 23.2001C18.9339 22.9317 18.6847 22.6735 18.4112 22.552C18.2304 22.4659 18.035 22.4406 17.3608 22.4102C16.3594 22.3697 16.1737 22.314 15.778 21.9292C15.5777 21.7368 15.4556 21.5647 15.3432 21.3166C15.1869 20.9622 15.0403 20.3293 15.0403 20.0154V19.8382L19.4029 19.823C23.7507 19.8078 23.7605 19.8078 23.9901 19.6964C24.2735 19.5648 24.635 19.2205 24.7864 18.9521C24.8499 18.8357 24.9232 18.618 24.9574 18.4661C24.9965 18.2585 25.0062 15.97 24.9965 9.73223L24.9818 1.27685L24.8499 0.988255C24.6936 0.638901 24.3809 0.309799 24.0536 0.137653L23.8094 0.011076L12.5489 0.00094986C4.52727 -0.00411415 1.24438 0.011076 1.14179 0.0465164ZM23.7214 0.93256C23.8142 0.978128 23.951 1.10471 24.0194 1.21609L24.1513 1.42368V8.46139V15.5042L23.7507 15.5193L23.3453 15.5345V8.79555C23.3453 1.83379 23.3501 1.92493 23.1547 1.77303C23.0424 1.6819 1.95763 1.6819 1.84526 1.77303C1.64985 1.92493 1.65474 1.83379 1.65474 8.79555V15.5345L1.25415 15.5193L0.848673 15.5042V8.46139V1.42368L0.975689 1.22116C1.23949 0.811045 0.115885 0.846487 12.4902 0.846487C22.6858 0.846487 23.5651 0.851549 23.7214 0.93256ZM22.5148 9.02339V15.4788H12.5H2.48523V9.02339V2.56794H12.5H22.5148V9.02339ZM24.1758 17.3269C24.1758 18.3547 24.1513 18.4863 23.9022 18.7294C23.824 18.8053 23.697 18.8914 23.6237 18.9167C23.526 18.9572 20.1405 18.9724 12.4951 18.9724C0.531132 18.9724 1.33231 18.9926 1.05874 18.6888C0.848673 18.4509 0.824246 18.3142 0.824246 17.3218V16.3902H12.5H24.1758V17.3269ZM14.1805 19.9445C14.1903 20.0103 14.2245 20.2483 14.2587 20.4761C14.3466 21.1495 14.6593 21.9647 14.9573 22.2988L15.055 22.4153H12.5H9.94501L10.0427 22.2988C10.3407 21.9647 10.6534 21.1495 10.7413 20.4761C10.7755 20.2483 10.8097 20.0103 10.8195 19.9445L10.839 19.8331H12.5H14.161L14.1805 19.9445ZM18.1962 23.433C18.3476 23.5798 18.3525 23.8583 18.206 24.0203L18.1034 24.1367H12.5049H6.91127L6.79891 24.0254C6.58884 23.8228 6.69143 23.4077 6.96501 23.3216C6.99921 23.3115 9.51511 23.3064 12.5537 23.3115L18.079 23.3165L18.1962 23.433Z" fill="#009688"/>
<path d="M5.53851 3.55506L5.41638 3.67657V7.92957V12.1826L5.53363 12.3243L5.65087 12.4661L10.5508 12.4914L15.4507 12.5167L15.6656 13.2509C15.8952 14.0509 15.9978 14.2129 16.2714 14.2129C16.3887 14.2129 16.4912 14.1369 16.7795 13.8483L17.1459 13.4838L17.6686 14.0255C18.1962 14.5724 18.3379 14.6686 18.5333 14.6281C18.5968 14.6179 18.9534 14.2838 19.3345 13.8888C20.2236 12.9572 20.2187 13.0382 19.4615 12.2433L18.9046 11.656L19.2416 11.2965C19.5152 11.0079 19.5836 10.9016 19.5836 10.7801C19.5836 10.4966 19.4273 10.3902 18.6554 10.1523L17.9471 9.9295L17.9324 6.81063L17.9226 3.69682L17.8005 3.56012L17.6832 3.42848H11.6695H5.65576L5.53851 3.55506ZM17.0921 4.92209V5.55498H11.6695H6.24687V4.92209V4.2892H11.6695H17.0921V4.92209ZM17.0921 8.06628C17.0921 9.32699 17.0775 9.66115 17.0335 9.6409C16.6964 9.50926 15.1087 9.04852 14.9866 9.04852C14.7668 9.04852 14.6007 9.22066 14.6007 9.43838C14.6007 9.57002 15.0452 11.2105 15.1722 11.5649C15.1918 11.6155 14.2831 11.6307 10.7218 11.6307H6.24687V9.04852V6.46634H11.6695H17.0921V8.06628ZM17.4341 10.6788C17.9031 10.8206 18.3086 10.9472 18.3281 10.9573C18.3476 10.9725 18.2793 11.0788 18.1767 11.1953C17.7956 11.6256 17.8298 11.7472 18.4991 12.4509L19.0169 12.9977L18.7287 13.3015L18.4405 13.6053L17.9226 13.0787C17.2533 12.3952 17.0677 12.3547 16.6476 12.78C16.5499 12.8762 16.4571 12.937 16.4424 12.9117C16.4326 12.8914 16.3105 12.4712 16.1737 11.9851C16.0369 11.4991 15.8611 10.8814 15.7829 10.613L15.6412 10.127L16.1102 10.2738C16.3691 10.3548 16.9651 10.5371 17.4341 10.6788Z" fill="#009688"/>
<path d="M7.23367 8.28929C7.07735 8.44118 7.06758 8.52726 7.08712 9.57026C7.10177 10.4766 7.10666 10.5171 7.21413 10.6284C7.32161 10.7449 7.32649 10.7449 9.07053 10.7601C10.028 10.7702 10.8634 10.7601 10.922 10.7449C10.9807 10.7297 11.0784 10.6689 11.1321 10.6082C11.2249 10.5069 11.2298 10.431 11.2298 9.46899C11.2298 8.44118 11.2298 8.43612 11.1077 8.31461L10.9904 8.18803H9.16335C7.39977 8.18803 7.33627 8.19309 7.23367 8.28929ZM10.3993 9.47912V9.90948H9.15358H7.90784V9.47912V9.04876H9.15358H10.3993V9.47912Z" fill="#009688"/>
<path d="M10.966 17.3822C10.795 17.5645 10.7999 17.7721 10.9806 17.9645L11.1223 18.1113H12.5H13.8776L14.0193 17.9645C14.2 17.7721 14.2049 17.5645 14.0339 17.3822L13.902 17.2506H12.5H11.0979L10.966 17.3822Z" fill="#009688"/>
</svg>
